<?xml version="1.0" encoding="iso-8859-1"?>
<!-- Generator: Adobe Illustrator 19.0.0, SVG Export Plug-In . SVG Version: 6.00 Build 0)  -->
<svg version="1.1" id="Capa_1" xmlns="http://www.w3.org/2000/svg" xmlns:xlink="http://www.w3.org/1999/xlink" x="0px" y="0px"
	 viewBox="0 0 404.8 404.8" style="enable-background:new 0 0 404.8 404.8;" xml:space="preserve">
<g>
	<g>
		<path d="M398.4,118.6c-2.4,0-4.4,1.2-5.2,3.2c-8,6-16.4,11.6-32.8,11.6c-17.6,0-26-6.4-35.6-13.6c-10-7.6-21.2-16-42.8-16
			c-21.6,0-33.2,8.4-42.8,16c-9.6,7.2-18,13.6-35.6,13.6c-17.6,0-26-6.4-35.6-13.6c-10-7.6-21.2-16-42.8-16
			c-21.6,0-33.2,8.4-42.8,16c-9.6,7.2-18,13.6-35.6,13.6c-17.6,0-26-6.4-35.6-13.6l-0.8-0.4c-2.8-2-6.8-1.6-8.8,1.2
			c0,0,0,0.4-0.4,0.4c-0.8,1.2-1.2,2.4-1.2,3.6v170c0,3.6,2.8,6.4,6.4,6.4h392c3.6,0,6.4-2.8,6.4-6.4v-81.2c0-0.8,0-1.6,0-2.4v-86
			C404.8,121.4,402,118.6,398.4,118.6z M12,181h0.4c8,4.8,18,9.2,32.8,9.2c21.6,0,33.2-8.4,42.8-16c9.6-7.2,18-13.6,35.6-13.6
			c17.6,0,26,6.4,35.6,13.6c10,7.6,21.2,16,42.8,16c21.6,0,33.2-8.4,42.8-16c9.6-7.2,18-13.6,35.6-13.6c17.6,0,26,6.4,35.6,13.6
			c10,7.6,21.2,16,42.8,16c14.8,0,24.8-4,32.8-9.2v28c-8.4,6.4-16.8,11.6-32.8,11.6c-17.6,0-26-6.4-35.6-13.6
			c-10-7.6-21.2-16-42.8-16c-21.6,0-33.2,8.4-42.8,16c-9.6,7.2-18,13.6-35.6,13.6c-17.6,0-26-6.4-35.6-13.6c-10-7.6-21.2-16-42.8-16
			c-21.6,0-33.2,8.4-42.8,16c-9.6,7.2-18,13.6-35.6,13.6c-16,0-24.4-5.2-33.2-12V181z M392,289H12.4v0v-65.2c8,5.2,18,9.2,33.2,9.2
			c21.6,0,33.2-8.4,42.8-16c9.6-7.2,18-13.6,35.6-13.6c17.6,0,26,6.4,35.6,13.6c10,7.6,21.2,16,42.8,16c21.6,0,33.2-8.4,42.8-16
			c9.6-7.2,18-13.6,35.6-13.6c17.6,0,26,6.4,35.6,13.6c10,7.6,21.2,16,42.8,16c14.8,0,24.8-4,32.8-8.8V289z M392.4,165.8
			c-8.8,6.4-16.8,11.6-32.8,11.6c-17.6,0-26-6.4-35.6-13.6c-10-7.6-21.2-16-42.8-16s-33.2,8.4-42.8,16c-9.6,7.2-18,13.6-35.6,13.6
			c-17.6,0-26-6.4-35.6-13.6c-10-7.6-21.2-16-42.8-16c-21.6,0-33.2,8.4-42.8,16c-9.6,7.2-18,13.6-35.6,13.6
			c-16,0-24.4-5.2-32.8-11.6v-29.6c8.4,5.2,18.4,9.6,34,9.6c21.2,0,32.4-8.4,42.4-16c9.6-7.2,18-13.6,35.6-13.6s26,6.4,35.6,13.6
			c10,7.6,21.2,16,42.8,16c21.6,0,33.2-8.4,42.8-16c9.6-7.2,18-13.6,35.6-13.6c17.6,0,26,6.4,35.6,13.6c10,7.6,21.2,16,42.8,16
			c14.4,0,24.4-4,32-8.4V165.8z"/>
	</g>
</g>
<g>
</g>
<g>
</g>
<g>
</g>
<g>
</g>
<g>
</g>
<g>
</g>
<g>
</g>
<g>
</g>
<g>
</g>
<g>
</g>
<g>
</g>
<g>
</g>
<g>
</g>
<g>
</g>
<g>
</g>
</svg>
