<?xml version="1.0" encoding="iso-8859-1"?>
<!-- Generator: Adobe Illustrator 19.0.0, SVG Export Plug-In . SVG Version: 6.00 Build 0)  -->
<svg version="1.1" id="Capa_1" xmlns="http://www.w3.org/2000/svg" xmlns:xlink="http://www.w3.org/1999/xlink" x="0px" y="0px"
	 viewBox="0 0 412.8 412.8" style="enable-background:new 0 0 412.8 412.8;" xml:space="preserve">
<g>
	<g>
		<path d="M370.2,0h-218c-3.6,0-6.4,2.8-6.4,6.4v66H43c-3.6,0-6.4,2.8-6.4,6.4v327.6c0,3.6,2.8,6.4,6.4,6.4h218h108.8
			c3.6,0,6.4-2.8,6.4-6.4V6.4C376.2,2.8,373.4,0,370.2,0z M120.2,84.8h64v40h-64V84.8z M120.2,136.8h64v38.4h-64V136.8z M120.2,188
			h64v38.4h-64V188z M120.2,238.8h64v30h-64V238.8z M49.4,84.8h58.4v40H49.4V84.8z M49.4,136.8h58v38.4h-58V136.8z M49.4,188h58
			v38.4h-58V188z M49.4,238.8h58v30h-58V238.8z M123,400.4v-74h58v74H123z M254.6,400.4h-60.8v-74h14.8c3.6,0,6.4-2.8,6.4-6.4
			c0-3.6-2.8-6.4-6.4-6.4h-21.2h-70.8H95.4c-3.6,0-6.4,2.8-6.4,6.4c0,3.6,2.8,6.4,6.4,6.4h15.2V400H49.4V281.2h205.2V400.4z
			 M254.6,268.8h-58v-30h58V268.8z M254.6,226.4h-58V188h58V226.4z M254.6,175.2h-58v-38.4h58V175.2z M255,124.8h-58.4v-40H255
			V124.8z M363.8,400.4h-96.4V281.2h96.4V400.4z M363.8,268.8h-96.4v-30h96.4V268.8z M363.8,226.4h-96.4V188h96.4V226.4z
			 M363.8,175.2h-96.4v-38.4h96.4V175.2z M363.8,124.8h-96.4v-40h96.4V124.8z M363.8,72H261H158.6V48.4h205.2V72z M363.8,35.6H158.6
			V12.4h205.2V35.6z"/>
	</g>
</g>
<g>
</g>
<g>
</g>
<g>
</g>
<g>
</g>
<g>
</g>
<g>
</g>
<g>
</g>
<g>
</g>
<g>
</g>
<g>
</g>
<g>
</g>
<g>
</g>
<g>
</g>
<g>
</g>
<g>
</g>
</svg>
