<?xml version="1.0" encoding="iso-8859-1"?>
<!-- Generator: Adobe Illustrator 19.0.0, SVG Export Plug-In . SVG Version: 6.00 Build 0)  -->
<svg version="1.1" id="Capa_1" xmlns="http://www.w3.org/2000/svg" xmlns:xlink="http://www.w3.org/1999/xlink" x="0px" y="0px"
	 viewBox="0 0 415.6 415.6" style="enable-background:new 0 0 415.6 415.6;" xml:space="preserve">
<g>
	<g>
		<path d="M409,40.8V6.4c0-3.6-2.8-6.4-6.4-6.4H13C9.4,0,6.6,2.8,6.6,6.4v402.8c0,3.6,2.8,6.4,6.4,6.4h37.2c3.6,0,6.4-2.8,6.4-6.4
			v-362h82.8V84h-16.8c-18,0-32.8,14.8-32.8,32.8v110.8c0,18,14.8,32.8,32.8,32.8h253.6c18,0,32.8-14.8,32.8-32.8V116.4
			c0-18-14.8-32.8-32.8-32.8h-16.8V46.8h43.2v0.4C406.2,47.2,409,44.4,409,40.8z M376.2,96.4c11.2,0,20,9.2,20,20v111.2
			c0,11.2-9.2,20-20,20h-254c-11.2,0-20-9.2-20-20V116.4c0-11.2,9.2-20,20-20H376.2z M151.4,84V47.2h195.2V84H151.4z M396.2,34.4
			h-36.8c-0.4-2.8-2.8-5.2-6-5.2s-5.6,2.4-6,5.2h-196c-0.4-2.8-2.8-5.2-6-5.2c-3.2,0-5.6,2.4-6,5.2H50.2c-3.6,0-6.4,2.8-6.4,6.4v362
			H19.4V12.4h376.8V34.4z"/>
	</g>
</g>
<g>
	<g>
		<path d="M192.6,172.4c-1.6-2.4-3.6-4-6-5.6c-2.4-1.2-6.4-2.8-11.6-4c-5.2-1.2-8.8-2.4-10-3.6c-1.2-0.8-1.6-2-1.6-3.2
			c0-1.2,0.4-2.4,1.6-3.2c1.6-1.2,4.4-2,7.6-2s5.2,0.8,6.8,2c1.6,1.2,2.4,3.2,2.8,6l10.8-0.4c0-4.8-2-8.8-5.2-12
			c-3.6-2.8-8.4-4.4-15.2-4.4c-4,0-7.6,0.8-10.8,2c-2.8,1.2-5.2,3.2-6.8,5.6c-1.6,2.4-2.4,4.8-2.4,7.6c0,4.4,1.6,8,4.8,10.8
			c2.4,2,6.4,4,12.4,5.2c4.4,1.2,7.6,2,8.8,2.4c2,0.8,3.2,1.6,4,2.4c0.8,0.8,1.2,2,1.2,3.2c0.8,1.6-0.4,3.2-2,4.8
			c-1.6,1.6-4.4,2.4-8,2.4c-3.2,0-6-0.8-8-2.4c-2-1.6-3.2-4.4-4-8l-10.4,1.2c0.8,6,2.8,10.8,6.4,13.6c3.6,3.2,8.8,4.8,15.6,4.8
			c4.8,0,8.4-0.8,11.6-2s5.6-3.2,7.2-6s2.4-5.6,2.4-8.8C194.6,177.2,193.8,174.4,192.6,172.4z"/>
	</g>
</g>
<g>
	<g>
		<path d="M231.8,142.4h-11.6l-20.8,54H211l4-12.4h21.6l4.8,12.4h12L231.8,142.4z M218.6,175.2l7.2-20l7.6,20H218.6z"/>
	</g>
</g>
<g>
	<g>
		<polygon points="270.2,187.2 270.2,142.8 259,142.8 259,196.4 297,196.4 297,187.2 		"/>
	</g>
</g>
<g>
	<g>
		<polygon points="315.8,187.2 315.8,172.8 342.6,172.8 342.6,163.6 315.8,163.6 315.8,151.6 345,151.6 345,142.4 305,142.4 
			305,196.4 345.8,196.4 345.8,187.2 		"/>
	</g>
</g>
<g>
</g>
<g>
</g>
<g>
</g>
<g>
</g>
<g>
</g>
<g>
</g>
<g>
</g>
<g>
</g>
<g>
</g>
<g>
</g>
<g>
</g>
<g>
</g>
<g>
</g>
<g>
</g>
<g>
</g>
</svg>
