<?xml version="1.0" encoding="iso-8859-1"?>
<!-- Generator: Adobe Illustrator 19.0.0, SVG Export Plug-In . SVG Version: 6.00 Build 0)  -->
<svg version="1.1" id="Capa_1" xmlns="http://www.w3.org/2000/svg" xmlns:xlink="http://www.w3.org/1999/xlink" x="0px" y="0px"
	 viewBox="0 0 359.2 359.2" style="enable-background:new 0 0 359.2 359.2;" xml:space="preserve">
<g>
	<g>
		<path d="M323.2,139V91c0-38-30.8-69.2-69.2-69.2H105.2C67.2,21.8,36,52.6,36,91v48c-20,0.8-36,17.2-36,37.6V331
			c0,3.6,2.8,6.4,6.4,6.4h72h202.4h72c3.6,0,6.4-2.8,6.4-6.4V176.6C359.2,156.2,343.2,139.8,323.2,139z M72.4,324.6h-60v-148
			c0-14,11.2-25.2,25.2-25.2h9.6c14,0,25.2,11.2,25.2,25.2V324.6z M274.4,324.6H84.8V255h189.6V324.6z M274.4,242.2H84.8V199h189.6
			V242.2z M274.4,176.2v10H84.8v-10c0-20.4-16-36.8-36-37.6v-48c0-30.8,25.2-56.4,56.4-56.4H254c31.2,0,56.4,25.2,56.4,56.4v48
			C290.4,139.4,274.4,155.8,274.4,176.2z M347.2,324.6h-0.4h-59.6v-148c0-14,11.2-25.2,25.2-25.2h9.6c14,0,25.2,11.2,25.2,25.2
			V324.6z"/>
	</g>
</g>
<g>
</g>
<g>
</g>
<g>
</g>
<g>
</g>
<g>
</g>
<g>
</g>
<g>
</g>
<g>
</g>
<g>
</g>
<g>
</g>
<g>
</g>
<g>
</g>
<g>
</g>
<g>
</g>
<g>
</g>
</svg>
