<?xml version="1.0" encoding="iso-8859-1"?>
<!-- Generator: Adobe Illustrator 19.0.0, SVG Export Plug-In . SVG Version: 6.00 Build 0)  -->
<svg version="1.1" id="Capa_1" xmlns="http://www.w3.org/2000/svg" xmlns:xlink="http://www.w3.org/1999/xlink" x="0px" y="0px"
	 viewBox="0 0 388 388" style="enable-background:new 0 0 388 388;" xml:space="preserve">
<g>
	<g>
		<path d="M381.6,163.6h-14.8H56v-59.2C56,88,69.2,74.8,85.6,74.8c16.4,0,29.6,13.2,29.6,29.6c0,3.6,2.8,6.4,6.4,6.4
			c3.6,0,6.4-2.8,6.4-6.4C128,81.2,109.2,62,85.6,62c-23.2,0-42.4,18.8-42.4,42.4V164h-22H6.4c-3.6,0-6.4,2.8-6.4,6.4
			c0.4,3.2,3.2,6,6.8,6h8.4v60c0,16.8,6,32,16,44L16,296.8c-6.4,6.8-6,18,0.8,24.4c3.2,3.2,7.6,4.8,11.6,4.8c4.8,0,9.2-2,12.8-5.6
			l18.4-19.6c7.6,3.2,16,4.8,24.8,4.8H304c9.2,0,18-2,26-5.2l18.8,20c3.2,3.6,8,5.6,12.8,5.6c4.4,0,8.4-1.6,11.6-4.8
			c6.8-6.4,7.2-17.6,0.8-24.4l-16-17.2c9.6-12,15.2-26.8,15.2-43.2v-60h8.4c3.6,0,6.4-2.8,6.4-6.4
			C388,166.4,385.2,163.6,381.6,163.6z M27.6,176.4H360v6.8H27.6V176.4z M31.6,312c-1.6,2-4.8,2-6.4,0c-2-1.6-2-4.8-0.4-6.8l15.2-16
			c2.4,2,5.2,4,7.6,5.6L31.6,312z M364,305.6c2,2,2,4.8,0,6.4c-2,1.6-4.8,1.6-6.8-0.4l-16.4-17.2c2.8-1.6,5.2-3.6,7.6-5.6L364,305.6
			z M360.4,236.8c0,14.8-6,28.4-15.6,38.4C334.4,286,320,292.8,304,292.8H84.4c-8.8,0-16.8-2-24.4-5.6c-6-2.8-11.2-6.8-16-11.2
			c-10-10-16-24-16-39.2V196h332.4V236.8z"/>
	</g>
</g>
<g>
</g>
<g>
</g>
<g>
</g>
<g>
</g>
<g>
</g>
<g>
</g>
<g>
</g>
<g>
</g>
<g>
</g>
<g>
</g>
<g>
</g>
<g>
</g>
<g>
</g>
<g>
</g>
<g>
</g>
</svg>
