<?xml version="1.0" encoding="iso-8859-1"?>
<!-- Generator: Adobe Illustrator 19.0.0, SVG Export Plug-In . SVG Version: 6.00 Build 0)  -->
<svg version="1.1" id="Capa_1" xmlns="http://www.w3.org/2000/svg" xmlns:xlink="http://www.w3.org/1999/xlink" x="0px" y="0px"
	 viewBox="0 0 415.2 415.2" style="enable-background:new 0 0 415.2 415.2;" xml:space="preserve">
<g>
	<g>
		<path d="M387.2,40.4h-360C12.4,40.4,0,52.4,0,67.6c0,14.8,12,27.2,27.2,27.2h1.2v274v0.4c0,0.4,0,0.8,0.4,1.2c0,0.4,0,0.8,0.4,1.2
			c0,0.4,0.4,0.8,0.8,0.8c0.4,0.4,0.4,0.8,0.8,0.8c0,0,0,0.4,0.4,0.4c0.4,0,0.4,0.4,0.8,0.4c0.4,0.4,0.8,0.4,1.2,0.4
			c0.4,0,0.8,0.4,1.2,0.4s0.4,0,0.8,0H380c0.8,0,1.6,0,2.4-0.4c0.4,0,0.4-0.4,0.8-0.4c0.4,0,0.8-0.4,0.8-0.4s0-0.4,0.4-0.4
			c0.4-0.4,0.4-0.8,0.8-0.8c0.4-0.4,0.4-0.8,0.8-0.8c0-0.4,0.4-0.8,0.4-1.2c0-0.4,0.4-0.8,0.4-1.2v-0.4v-274h1.2
			c14.8,0,27.2-12,27.2-27.2C414,52.8,402,40.4,387.2,40.4z M47.6,362l58-74.8h203.2l58,74.8H47.6z M41.2,350V239.2h55.2v40
			L41.2,350z M108.8,274.8v-35.6h196.8v35.6H108.8z M373.2,350L318,278.8v-40h55.2V350z M373.6,226.4H41.2v-14h332.4V226.4z
			 M373.6,200H41.2v-18h332.4V200z M373.6,169.6H41.2v-18h332.4V169.6z M373.6,139.2h-0.4h-332v-18h332.4V139.2z M373.6,108.4h-0.4
			h-332v-14h332.4V108.4z M387.2,82h-7.6H34.8h-7.6c-8,0-14.4-6.4-14.4-14.4s6.4-14.4,14.4-14.4h360c8,0,14.4,6.4,14.4,14.4
			S395.2,82,387.2,82z"/>
	</g>
</g>
<g>
</g>
<g>
</g>
<g>
</g>
<g>
</g>
<g>
</g>
<g>
</g>
<g>
</g>
<g>
</g>
<g>
</g>
<g>
</g>
<g>
</g>
<g>
</g>
<g>
</g>
<g>
</g>
<g>
</g>
</svg>
