<?xml version="1.0" encoding="iso-8859-1"?>
<!-- Generator: Adobe Illustrator 19.0.0, SVG Export Plug-In . SVG Version: 6.00 Build 0)  -->
<svg version="1.1" id="Capa_1" xmlns="http://www.w3.org/2000/svg" xmlns:xlink="http://www.w3.org/1999/xlink" x="0px" y="0px"
	 viewBox="0 0 360.4 360.4" style="enable-background:new 0 0 360.4 360.4;" xml:space="preserve">
<g>
	<g>
		<path d="M327.6,32.8C306.4,11.6,278.4,0,248.8,0c-30,0-58,11.6-78.8,32.8c-32.4,32.4-41.6,81.6-23.2,123.2L2,300.8
			c-1.2,1.2-2,2.8-2,4.4v49.2c0.4,0.8,0.4,1.6,0.8,2.4c0.8,1.6,2,2.8,3.2,3.2c0.8,0.4,1.6,0.4,2.4,0.4h49.2c1.6,0,3.2-0.8,4.4-2
			l15.6-15.6c1.6-1.6,2.4-4,1.6-6l-4-14.4l14.4,4c2,0.4,4.4,0,6-1.6l8.4-8.4c1.6-1.6,2.4-4,1.6-6l-4-14.4l14.4,4c2,0.4,4.4,0,6-1.6
			l8.4-8.4c1.6-1.6,2.4-4,1.6-6l-4-14.4l14.4,4c2,0.4,4.4,0,6-1.6l58-58c14,6,29.2,9.2,44.4,9.2c29.6,0,57.6-11.6,78.8-32.8
			c21.2-21.2,32.8-49.2,32.8-78.8C360.4,81.6,348.8,53.6,327.6,32.8z M52.8,348H21.6l37.2-37.2c-0.8,1.2-0.8,2.8-0.4,4.4l5.6,21.6
			L52.8,348z M87.6,313.2L66,307.6c-1.6-0.4-3.2,0-4.4,0.4l23.6-23.6c-0.8,1.2-0.8,2.8-0.4,4.4l5.6,21.6L87.6,313.2z M114.4,286.8
			l-21.6-6c-1.6-0.4-3.2,0-4.4,0.4l23.6-23.6c-0.8,1.2-0.8,2.8-0.4,4.4l5.6,21.6L114.4,286.8z M320,180.8
			c-18.8,18.8-43.6,28.8-70,28.8c-14.8,0-30-3.6-43.2-10c-2.4-1.2-5.2-0.8-7.2,1.2L140.8,260l-21.6-5.6c-1.6-0.4-3.2,0-4.4,0.4
			l128.4-128.4c7.2,5.2,15.6,8,24.8,8c11.2,0,21.6-4.4,29.6-12.4c16.4-16.4,16.4-42.8,0-59.2c-8-8-18.4-12.4-29.6-12.4
			s-21.6,4.4-29.6,12.4c-14.8,14.8-16,38-4,54.4l-221.6,222V308l146.8-146.8c2-2,2.4-4.8,1.2-7.2C142.4,116,150,70.8,180,40.8
			c18.8-18.8,43.6-29.2,70-29.2s51.2,10.4,70,29.2s29.2,43.6,29.2,70S338.8,162,320,180.8z M247.2,72c5.6-5.6,12.8-8.4,20.8-8.4
			s15.2,3.2,20.8,8.4c11.6,11.6,11.6,30,0,41.6c-5.6,5.6-12.8,8.4-20.8,8.4s-15.2-2.8-20.8-8.4C235.6,102,235.6,83.6,247.2,72z"/>
	</g>
</g>
<g>
</g>
<g>
</g>
<g>
</g>
<g>
</g>
<g>
</g>
<g>
</g>
<g>
</g>
<g>
</g>
<g>
</g>
<g>
</g>
<g>
</g>
<g>
</g>
<g>
</g>
<g>
</g>
<g>
</g>
</svg>
