<?xml version="1.0" encoding="iso-8859-1"?>
<!-- Generator: Adobe Illustrator 19.0.0, SVG Export Plug-In . SVG Version: 6.00 Build 0)  -->
<svg version="1.1" id="Capa_1" xmlns="http://www.w3.org/2000/svg" xmlns:xlink="http://www.w3.org/1999/xlink" x="0px" y="0px"
	 viewBox="0 0 367.6 367.6" style="enable-background:new 0 0 367.6 367.6;" xml:space="preserve">
<g>
	<g>
		<path d="M260.2,178l-72-72.4c-1.2-1.2-2.8-1.6-4.4-1.6c-1.6,0-3.2,0.8-4.4,2l-72,72.4c-1.6,1.6-2.4,4.4-1.2,6.8
			c0.8,2.4,3.2,4,5.6,4h13.6v55.6c0,3.6,2.8,6.4,6.4,6.4h104c3.6,0,6.4-2.8,6.4-6.4v-56h13.6c2.4,0,4.8-1.6,5.6-4
			C262.2,182.4,261.8,179.6,260.2,178z M235.8,176.4c-3.6,0-6.4,2.8-6.4,6.4v55.6h-91.2v-56c0-3.6-2.8-6.4-6.4-6.4H127l56.8-56.8
			l56.8,57.2H235.8z"/>
	</g>
</g>
<g>
	<g>
		<path d="M221,159.6c-2.4-2.4-6.4-2.4-8.8,0L171,199.2L156.2,174c-1.6-2.8-5.6-4-8.4-2.4c-2.8,1.6-4,5.6-2.4,8.4l18.8,32
			c0.8,1.6,2.8,2.8,4.4,3.2c0.4,0,0.4,0,0.8,0c1.6,0,3.2-0.8,4.4-1.6l47.2-45.2C223.4,166,223.4,162,221,159.6z"/>
	</g>
</g>
<g>
	<g>
		<path d="M335.4,73.2c0,0,0-0.4-0.4-0.4c-0.4-0.8-0.8-1.2-1.2-1.6L265,2c-0.4-0.4-1.2-0.8-2-1.2c0,0-0.4,0-0.4-0.4
			c-0.4,0-1.2-0.4-1.6-0.4h-0.4H38.2c-3.6,0-6.4,2.8-6.4,6.4v354.8c0,3.6,2.8,6.4,6.4,6.4h291.2c3.6,0,6.4-2.8,6.4-6.4v-286v-0.4
			C335.8,74.4,335.8,73.6,335.4,73.2z M266.6,21.6l47.6,47.6h-47.6V21.6z M323.4,354.8H44.2V12.4h210v62.8c0,3.6,2.8,6.4,6.4,6.4
			h62.8V354.8z"/>
	</g>
</g>
<g>
	<g>
		<path d="M183.8,68.8h-94c-3.6,0-6.4,2.8-6.4,6.4c0,3.6,2.8,6.4,6.4,6.4h94c3.6,0,6.4-2.8,6.4-6.4
			C190.2,71.6,187.4,68.8,183.8,68.8z"/>
	</g>
</g>
<g>
	<g>
		<path d="M285.8,280.4h-196c-3.6,0-6.4,2.8-6.4,6.4c0,3.6,2.8,6.4,6.4,6.4h196c3.6,0,6.4-2.8,6.4-6.4
			C292.2,283.2,289.4,280.4,285.8,280.4z"/>
	</g>
</g>
<g>
	<g>
		<path d="M285.8,312h-196c-3.6,0-6.4,2.8-6.4,6.4c0,3.6,2.8,6.4,6.4,6.4h196c3.6,0,6.4-2.8,6.4-6.4S289.4,312,285.8,312z"/>
	</g>
</g>
<g>
</g>
<g>
</g>
<g>
</g>
<g>
</g>
<g>
</g>
<g>
</g>
<g>
</g>
<g>
</g>
<g>
</g>
<g>
</g>
<g>
</g>
<g>
</g>
<g>
</g>
<g>
</g>
<g>
</g>
</svg>
