<?xml version="1.0" encoding="iso-8859-1"?>
<!-- Generator: Adobe Illustrator 19.0.0, SVG Export Plug-In . SVG Version: 6.00 Build 0)  -->
<svg version="1.1" id="Capa_1" xmlns="http://www.w3.org/2000/svg" xmlns:xlink="http://www.w3.org/1999/xlink" x="0px" y="0px"
	 viewBox="0 0 373.3 373.3" style="enable-background:new 0 0 373.3 373.3;" xml:space="preserve">
<g>
	<g>
		<path d="M283.45,161.7l-92.8-92.8c-1.2-1.2-2.8-2-4.4-2c-1.6,0-3.2,0.8-4.4,2l-92.4,92.8c-1.6,1.6-2.4,4.4-1.2,6.8
			c0.8,2.4,3.2,4,5.6,4h19.6v73.2c0,3.6,2.8,6.4,6.4,6.4h133.2c3.6,0,6.4-2.8,6.4-6.4v-73.2h19.6c2.4,0,4.8-1.6,5.6-4
			C285.45,166.1,285.05,163.3,283.45,161.7z M253.05,159.7c-3.6,0-6.4,2.8-6.4,6.4v73.2h-120.8v-73.2c0-3.6-2.8-6.4-6.4-6.4h-10.8
			l77.2-77.6l77.2,77.6H253.05z"/>
	</g>
</g>
<g>
	<g>
		<path d="M343.45,55.7c0-2.8-2-5.2-4.8-5.6c-0.4,0-44-7.2-79.6-18.8c-35.2-11.6-68.8-30.4-69.2-30.4c-2-1.2-4.4-1.2-6,0
			c-0.4,0-34,19.2-69.2,30.4c-35.6,11.6-79.2,18.8-79.6,18.8c-2.8,0.4-4.8,2.8-5.2,5.6c-0.4,2.4-23.6,247.2,154.4,317.2
			c0.8,0.4,1.6,0.4,2.4,0.4s1.6,0,2.4-0.4C367.05,302.9,343.85,58.5,343.45,55.7z M187.05,360.1C33.45,297.7,40.25,95.3,42.25,61.7
			c12.4-2.4,46.8-8.8,76.4-18.4c30.4-10,58.8-24.8,68.4-29.6c9.2,5.2,38,20,68.4,29.6c29.6,9.6,64,16.4,76.4,18.4
			C333.85,95.3,340.65,297.7,187.05,360.1z"/>
	</g>
</g>
<g>
	<g>
		<path d="M233.05,138.1c-2.4-2.4-6.4-2.4-8.8,0l-54.8,52.4l-20-34.4c-1.6-2.8-5.6-4-8.4-2.4c-2.8,1.6-4,5.6-2.4,8.4l24.4,41.2
			c0.8,1.6,2.8,2.8,4.4,3.2c0.4,0,0.4,0,0.8,0c1.6,0,3.2-0.8,4.4-1.6l60.4-58C235.45,144.5,235.45,140.5,233.05,138.1z"/>
	</g>
</g>
<g>
</g>
<g>
</g>
<g>
</g>
<g>
</g>
<g>
</g>
<g>
</g>
<g>
</g>
<g>
</g>
<g>
</g>
<g>
</g>
<g>
</g>
<g>
</g>
<g>
</g>
<g>
</g>
<g>
</g>
</svg>
