<?xml version="1.0" encoding="iso-8859-1"?>
<!-- Generator: Adobe Illustrator 19.0.0, SVG Export Plug-In . SVG Version: 6.00 Build 0)  -->
<svg version="1.1" id="Capa_1" xmlns="http://www.w3.org/2000/svg" xmlns:xlink="http://www.w3.org/1999/xlink" x="0px" y="0px"
	 viewBox="0 0 345.508 345.508" style="enable-background:new 0 0 345.508 345.508;" xml:space="preserve">
<g>
	<g>
		<path d="M339.6,18.354c-9.6-11.6-28-17.6-54.8-17.6c-1.6,0-3.2,0.8-4.4,2c-1.2,1.2-2,2.8-2,4.4v65.6H6.4c-3.6,0-6.4,2.8-6.4,6.4
			v259.2c0,3.6,2.8,6.4,6.4,6.4h278.4c33.2,0,60.4-27.2,60.4-60.4v-245.2C346,34.754,345.6,25.954,339.6,18.354z M284.8,332.354
			h-272v-246.8h265.6v144.8c0,3.6,2.8,6.4,6.4,6.4c26.4,0,48,21.6,48,48C332.4,310.754,311.2,332.354,284.8,332.354z M332.8,36.754
			c0,0.4,0,0.8,0,1.6v209.2c-10-12.8-24.8-21.6-41.6-23.2v-210.8c24,0.8,34,7.2,38.4,12.4C333.6,31.154,332.8,36.754,332.8,36.754z"
			/>
	</g>
</g>
<g>
	<g>
		<path d="M224,115.954H57.6c-3.6,0-6.4,2.8-6.4,6.4v174c0,3.6,2.8,6.4,6.4,6.4H224c3.6,0,6.4-2.8,6.4-6.4v-174
			C230.4,118.754,227.6,115.954,224,115.954z M106.4,289.954H64v-53.2h42.4V289.954z M106.4,224.354H64v-47.6h42.4V224.354z
			 M106.4,164.354H64v-35.6h42.4V164.354z M217.6,289.954h-98.8v-53.2h98.8V289.954z M217.6,224.354h-98.8v-95.6h98.8V224.354z"/>
	</g>
</g>
<g>
</g>
<g>
</g>
<g>
</g>
<g>
</g>
<g>
</g>
<g>
</g>
<g>
</g>
<g>
</g>
<g>
</g>
<g>
</g>
<g>
</g>
<g>
</g>
<g>
</g>
<g>
</g>
<g>
</g>
</svg>
