<?xml version="1.0" encoding="iso-8859-1"?>
<!-- Generator: Adobe Illustrator 19.0.0, SVG Export Plug-In . SVG Version: 6.00 Build 0)  -->
<svg version="1.1" id="Capa_1" xmlns="http://www.w3.org/2000/svg" xmlns:xlink="http://www.w3.org/1999/xlink" x="0px" y="0px"
	 viewBox="0 0 352 352" style="enable-background:new 0 0 352 352;" xml:space="preserve">
<g>
	<g>
		<path d="M260.6,130.8l-39.2-39.2v-32c0-3.6-2.8-6.4-6.4-6.4h-19.2c-3.6,0-6.4,2.8-6.4,6.4V60l-9.6-9.6c-2.4-2.4-6.4-2.4-8.8,0
			l-80,80.4c-1.6,1.6-2.4,4.4-1.2,6.8c0.8,2.4,3.2,4,5.6,4h16v62.8c0,3.6,2.8,6.4,6.4,6.4h116c3.6,0,6.4-2.8,6.4-6.4v-62.8h16
			c2.4,0,4.8-1.6,5.6-4C262.6,135.2,262.2,132.4,260.6,130.8z M202.6,66h6.4v13.2l-6.4-6.4V66z M185.4,198.4h-20.8V164h20.8V198.4z
			 M227.8,198.4h-29.6v-40.8c0-3.6-2.8-6.4-6.4-6.4h-33.2c-3.6,0-6.4,2.8-6.4,6.4V198h-28v-56.4h103.6V198.4z M233.8,129.2h-116
			h-7.2l65.2-65.6l16,16l49.2,49.6H233.8z"/>
	</g>
</g>
<g>
	<g>
		<path d="M175.8,0C103,0,44.2,59.2,44.2,131.6c0,70,121.6,212,126.8,218c1.2,1.6,2.8,2.4,4.8,2.4s3.6-0.8,4.8-2
			c5.2-6,127.2-145.2,127.2-218C307.4,59.2,248.6,0,175.8,0z M175.8,336C153,308.8,56.6,190,56.6,131.6
			c0-65.6,53.6-119.2,119.2-119.2S295,66,295,131.6C295,192,198.6,309.2,175.8,336z"/>
	</g>
</g>
<g>
</g>
<g>
</g>
<g>
</g>
<g>
</g>
<g>
</g>
<g>
</g>
<g>
</g>
<g>
</g>
<g>
</g>
<g>
</g>
<g>
</g>
<g>
</g>
<g>
</g>
<g>
</g>
<g>
</g>
</svg>
