<?xml version="1.0" encoding="iso-8859-1"?>
<!-- Generator: Adobe Illustrator 19.0.0, SVG Export Plug-In . SVG Version: 6.00 Build 0)  -->
<svg version="1.1" id="Capa_1" xmlns="http://www.w3.org/2000/svg" xmlns:xlink="http://www.w3.org/1999/xlink" x="0px" y="0px"
	 viewBox="0 0 384.178 384.178" style="enable-background:new 0 0 384.178 384.178;" xml:space="preserve">
<g>
	<g>
		<path d="M382.578,200.989l-93.2-93.6c0-0.4,0.4-0.8,0.4-1.6v-75.2c0-3.6-2.8-6.4-6.4-6.4h-44c-3.6,0-6.4,2.8-6.4,6.4v20.4
			l-36.4-36.8c-2.4-2.4-6.4-2.4-8.8,0l-186,186.8c-1.6,1.6-2.4,4.4-1.2,6.8c0.8,2.4,3.2,4,5.6,4h45.6v153.6c0,3.6,2.8,6.4,6.4,6.4
			h268c3.6,0,6.4-2.8,6.4-6.4v-153.6h45.6c2.4,0,4.8-1.6,5.6-4C384.578,205.389,384.178,202.589,382.578,200.989z M245.778,36.989
			h31.2v58.4l-31.2-31.6V36.989z M320.178,358.989h-256v-147.2h256V358.989z M326.178,199.389h-268h-36.8l170.8-171.6l42.8,43.2
			l128,128.4H326.178z"/>
	</g>
</g>
<g>
	<g>
		<path d="M234.978,273.789h-8.4v-14.8c0-18.8-15.6-34.4-34.4-34.4s-34.4,15.6-34.4,34.4v14.8h-8.4c-3.6,0-6.4,2.8-6.4,6.4v56.8
			c0,3.6,2.8,6.4,6.4,6.4h85.6c3.6,0,6.4-2.8,6.4-6.4v-56.8C241.378,276.589,238.578,273.789,234.978,273.789z M170.178,258.989
			c0-12,10-22,22-22s22,10,22,22v14.8h-44V258.989z M229.378,330.589h-73.6v-44h30.4v9.6c-2,2-3.6,4.4-3.6,7.6c0,5.6,4.4,10,10,10
			c5.6,0,10-4.4,10-10c0-3.2-1.6-5.6-3.6-7.6v-9.6h30.4V330.589z"/>
	</g>
</g>
<g>
</g>
<g>
</g>
<g>
</g>
<g>
</g>
<g>
</g>
<g>
</g>
<g>
</g>
<g>
</g>
<g>
</g>
<g>
</g>
<g>
</g>
<g>
</g>
<g>
</g>
<g>
</g>
<g>
</g>
</svg>
